<?xml version="1.0" encoding="UTF-8" standalone="no"?>
<!-- Created with Inkscape (http://www.inkscape.org/) -->

<svg
   xmlns:dc="http://purl.org/dc/elements/1.1/"
   xmlns:cc="http://creativecommons.org/ns#"
   xmlns:rdf="http://www.w3.org/1999/02/22-rdf-syntax-ns#"
   xmlns:svg="http://www.w3.org/2000/svg"
   xmlns="http://www.w3.org/2000/svg"
   xmlns:sodipodi="http://sodipodi.sourceforge.net/DTD/sodipodi-0.dtd"
   xmlns:inkscape="http://www.inkscape.org/namespaces/inkscape"
   id="svg3462"
   version="1.1"
   inkscape:version="0.91 r13725"
   width="21.658451"
   height="19.558609"
   viewBox="0 0 21.658451 19.558608"
   sodipodi:docname="stack_share.svg">
  <metadata
     id="metadata3468">
    <rdf:RDF>
      <cc:Work
         rdf:about="">
        <dc:format>image/svg+xml</dc:format>
        <dc:type
           rdf:resource="http://purl.org/dc/dcmitype/StillImage" />
        <dc:title></dc:title>
      </cc:Work>
    </rdf:RDF>
  </metadata>
  <defs
     id="defs3466" />
  <sodipodi:namedview
     pagecolor="#ffffff"
     bordercolor="#666666"
     borderopacity="1"
     objecttolerance="10"
     gridtolerance="10"
     guidetolerance="10"
     inkscape:pageopacity="0"
     inkscape:pageshadow="2"
     inkscape:window-width="1680"
     inkscape:window-height="1024"
     id="namedview3464"
     showgrid="false"
     inkscape:zoom="3.4322581"
     inkscape:cx="83.85054"
     inkscape:cy="-56.232321"
     inkscape:window-x="0"
     inkscape:window-y="0"
     inkscape:window-maximized="1"
     inkscape:current-layer="svg3462"
     fit-margin-top="0"
     fit-margin-left="0"
     fit-margin-right="0"
     fit-margin-bottom="0" />
  <path
     style="fill:#383838;fill-opacity:1"
     d="M 16.658559,19.051041 C 16.240312,18.77292 15.747046,18.221194 15.562413,17.824985 15.22851,17.108453 15.217725,17.104562 13.548208,17.098769 l -1.678502,-0.0058 -1.64024,-3.020326 -1.6402394,-3.020324 -1.0453647,0.0048 C 6.5872248,11.061615 6.470005,11.123143 6.1627972,11.782387 5.1626396,13.928639 1.9612937,14.128299 0.54053064,12.13302 -0.14969579,11.163687 -0.18496242,9.3311944 0.46971717,8.4534793 1.6340532,6.8924768 3.0903161,6.4645396 4.6570586,7.2229869 c 0.5416932,0.2622289 1.1191046,0.727549 1.2831362,1.0340445 0.2538056,0.474239 0.4572685,0.5572644 1.3656583,0.5572644 l 1.0674186,0 1.8601173,-3.2411181 1.860118,-3.2411174 1.567919,-0.00399 C 15.181954,2.3242008 15.238207,2.3040659 15.52248,1.661849 15.942569,0.71279838 17.208053,0 18.472878,0 22.3303,0 22.864761,5.7628397 19.081662,6.564195 17.87439,6.8199261 16.869017,6.4658342 15.979605,5.4716485 15.283819,4.6939008 15.035521,4.5620852 14.266281,4.5620852 l -0.899611,0 -1.486646,2.5972181 c -0.817653,1.4284708 -1.456601,2.6667238 -1.419882,2.7516748 0.03672,0.084951 0.661921,1.2325359 1.389335,2.5501899 l 1.322573,2.395735 1.056717,0 c 0.942804,0 1.120532,-0.08366 1.648665,-0.776079 1.184878,-1.553459 3.393257,-1.610912 4.87728,-0.126889 0.847953,0.847953 0.984607,1.291351 0.864575,2.805269 -0.179818,2.267976 -3.021974,3.581037 -4.960728,2.291837 z m 2.822972,-1.735223 c 0.880659,-0.973117 0.194942,-2.682714 -1.076035,-2.682714 -0.687475,0 -1.500282,0.869869 -1.500282,1.605612 0,1.322576 1.707951,2.036635 2.576317,1.077102 z M 4.2147049,11.443947 C 4.4212083,11.290084 4.6531311,10.843564 4.7300885,10.451681 4.8432557,9.8754106 4.7601882,9.6293417 4.2956754,9.1648286 3.9797907,8.8489441 3.5107635,8.5904923 3.2533932,8.5904923 c -0.5530417,0 -1.5666023,0.9441018 -1.5666023,1.4592427 0,0.439428 0.4247147,1.278239 0.7608548,1.502685 0.3868815,0.258328 1.3544853,0.19893 1.7670592,-0.108473 z M 19.3361,4.4791646 C 20.212485,3.7970042 19.96749,2.3106081 18.906212,1.8710125 18.359202,1.6444338 18.158385,1.6599314 17.693386,1.964609 17.014669,2.4093229 16.761767,3.2859414 17.098792,4.025628 17.505686,4.9186657 18.509931,5.1222408 19.3361,4.4791646 Z"
     id="path3474"
     inkscape:connector-curvature="0" />
</svg>
